<svg width="22" height="24" viewBox="0 0 22 24" fill="none" xmlns="http://www.w3.org/2000/svg">
<path d="M19.9375 0.633301H2.0625C0.923828 0.633301 0 1.74399 0 3.11298V21.2973C0 22.6663 0.923828 23.777 2.0625 23.777H19.9375C21.0762 23.777 22 22.6663 22 21.2973V3.11298C22 1.74399 21.0762 0.633301 19.9375 0.633301ZM16.3453 15.6405C16.5516 15.8885 16.5516 16.2914 16.3453 16.5394L14.6051 18.6316C14.3988 18.8796 14.0637 18.8796 13.8574 18.6316L11 15.1652L8.14258 18.6316C7.93633 18.8796 7.60117 18.8796 7.39492 18.6316L5.65469 16.5394C5.44844 16.2914 5.44844 15.8885 5.65469 15.6405L8.53789 12.2051L5.65469 8.76975C5.44844 8.52178 5.44844 8.11883 5.65469 7.87086L7.39492 5.77863C7.60117 5.53067 7.93633 5.53067 8.14258 5.77863L11 9.24502L13.8574 5.77863C14.0637 5.53067 14.3988 5.53067 14.6051 5.77863L16.3453 7.87086C16.5516 8.11883 16.5516 8.52178 16.3453 8.76975L13.4621 12.2051L16.3453 15.6405Z" fill="#737979"/>
</svg>
