<svg width="15" height="17" viewBox="0 0 15 17" fill="none" xmlns="http://www.w3.org/2000/svg">
<path d="M9.20977 12.4467L9.20297 12.4541L9.20016 12.4575L9.20015 12.4575L7.2314 14.6052C5.69316 16.2833 3.20891 16.2831 1.6709 14.6052L1.67087 14.6052C0.109711 12.9024 0.109711 10.1136 1.67087 8.41078L1.6709 8.41075L2.69137 7.2975C2.71584 7.88909 2.81554 8.48384 2.9957 9.06011L2.99571 9.06013C2.99915 9.07114 2.99953 9.08287 2.99749 9.09273C2.9959 9.1004 2.99359 9.10379 2.99328 9.10424C2.99326 9.10427 2.99324 9.10429 2.99324 9.10429L2.61011 9.52224L2.97869 9.8601L2.61011 9.52224C1.6198 10.6026 1.58325 12.3519 2.57299 13.453L2.94485 13.1188L2.57299 13.453C3.59127 14.5859 5.28433 14.5932 6.3112 13.473C6.31121 13.4729 6.31122 13.4729 6.31123 13.4729L8.27995 11.3255L8.27998 11.3255C9.28157 10.2329 9.27721 8.48318 8.27998 7.39528L8.27966 7.39494C8.14672 7.25019 8.01399 7.13868 7.91035 7.06071C7.91006 7.06026 7.90967 7.0596 7.90921 7.05869C7.90715 7.05461 7.90492 7.04772 7.90461 7.03884L7.40492 7.05639L7.90462 7.03922C7.89704 6.81841 7.96918 6.60204 8.11621 6.44164L8.11622 6.44164L8.7022 5.80235C8.87893 5.94033 9.04545 6.09428 9.19998 6.26283C10.7742 7.9819 10.7528 10.754 9.20977 12.4467ZM13.3291 1.75848L13.3291 1.75851C14.8903 3.4613 14.8903 6.2501 13.3291 7.95286L13.3291 7.95289L12.3086 9.06614C12.2841 8.47455 12.1844 7.8798 12.0043 7.30353L12.0043 7.3035C12.0008 7.2925 12.0004 7.28077 12.0025 7.27091C12.0041 7.26326 12.0064 7.25986 12.0067 7.25941L12.3899 6.84141C12.3899 6.84141 12.3899 6.8414 12.3899 6.8414C13.3802 5.76106 13.4167 4.01173 12.427 2.91063L12.427 2.91062C11.4087 1.77778 9.71565 1.77048 8.68877 2.89069C8.68876 2.89069 8.68875 2.8907 8.68874 2.89071L6.72002 5.03809L6.71999 5.03812C5.71841 6.13076 5.72276 7.88046 6.71999 8.96836L6.72031 8.9687C6.85325 9.11345 6.98599 9.22496 7.08962 9.30293C7.08991 9.30338 7.09031 9.30404 7.09076 9.30495L7.09169 9.30448L7.09077 9.30495C7.09282 9.30902 7.09505 9.31592 7.09536 9.32481C7.10285 9.54548 7.03071 9.76169 6.88376 9.922L6.88376 9.922L6.29777 10.5613C6.12106 10.4233 5.95454 10.2694 5.80003 10.1008C4.22585 8.38177 4.2472 5.60969 5.79024 3.91701L5.79703 3.90956L5.79985 3.90621L5.79985 3.90621L7.7686 1.75848C9.30684 0.0803978 11.7911 0.0806174 13.3291 1.75848ZM12.2567 9.12276L12.242 9.13881C12.2408 9.14016 12.2405 9.14024 12.2414 9.13953C12.2416 9.13938 12.2418 9.13919 12.2422 9.13897C12.243 9.13833 12.2444 9.13743 12.2462 9.1364C12.2515 9.13336 12.2586 9.1305 12.2668 9.12883C12.2835 9.12545 12.2963 9.12843 12.303 9.13126C12.3095 9.13404 12.3125 9.1374 12.3134 9.13883C12.3155 9.14176 12.3112 9.13826 12.3107 9.12095C12.3107 9.12095 12.3107 9.12094 12.3107 9.12093L12.2567 9.12274L12.2567 9.12276Z" fill="#737979" stroke="#C4C4C4"/>
</svg>
